<svg width="39" height="37" viewBox="0 0 39 37" fill="none" xmlns="http://www.w3.org/2000/svg">
<path d="M19.5 35.1667H37.125M25.375 5.79167L31.25 11.6667M28.0697 3.09308C28.8493 2.31349 29.9066 1.87552 31.0091 1.87552C32.1116 1.87552 33.169 2.31349 33.9486 3.09308C34.7282 3.87268 35.1661 4.93003 35.1661 6.03254C35.1661 7.13505 34.7282 8.19241 33.9486 8.972L10.429 32.4935C9.9631 32.9594 9.38721 33.3002 8.75462 33.4845L3.13029 35.1255C2.96178 35.1747 2.78315 35.1776 2.61311 35.1341C2.44307 35.0905 2.28786 35.002 2.16374 34.8779C2.03962 34.7538 1.95115 34.5986 1.90759 34.4286C1.86402 34.2585 1.86697 34.0799 1.91612 33.9114L3.5572 28.287C3.74172 27.6552 4.08252 27.08 4.54812 26.6146L28.0697 3.09308Z" stroke="#3F4E4F" stroke-width="2" stroke-linecap="round" stroke-linejoin="round"/>
</svg>
