<svg width="38" height="36" viewBox="0 0 38 36" fill="none" xmlns="http://www.w3.org/2000/svg">
<path d="M18.623 34.2911H36.248M24.498 4.91615L30.373 10.7911M27.1927 2.21756C27.9723 1.43797 29.0297 1 30.1322 1C31.2347 1 32.292 1.43797 33.0716 2.21756C33.8512 2.99716 34.2892 4.05451 34.2892 5.15702C34.2892 6.25953 33.8512 7.31689 33.0716 8.09648L9.55204 31.618C9.08615 32.0839 8.51025 32.4247 7.87767 32.6089L2.25333 34.25C2.08482 34.2992 1.9062 34.3021 1.73616 34.2586C1.56612 34.215 1.41091 34.1265 1.28679 34.0024C1.16267 33.8783 1.0742 33.7231 1.03063 33.553C0.987071 33.383 0.990018 33.2044 1.03917 33.0359L2.68025 27.4115C2.86477 26.7796 3.20557 26.2044 3.67117 25.7391L27.1927 2.21756Z" stroke="#F8F8F7" stroke-width="2" stroke-linecap="round" stroke-linejoin="round"/>
</svg>
