<svg width="49" height="49" viewBox="0 0 49 49" fill="none" xmlns="http://www.w3.org/2000/svg">
<path d="M16.3333 20.4167V28.5833M24.5 20.4167V24.5M32.6666 20.4167V32.6667M8.16665 40.8333H40.8333C41.9163 40.8333 42.9549 40.4031 43.7207 39.6373C44.4864 38.8716 44.9166 37.833 44.9166 36.75V16.3333C44.9166 15.2504 44.4864 14.2118 43.7207 13.446C42.9549 12.6802 41.9163 12.25 40.8333 12.25H24.6429C23.9703 12.2465 23.3091 12.077 22.7178 11.7564C22.1265 11.4358 21.6236 10.9742 21.2537 10.4125L19.5796 7.9625C19.2097 7.40079 18.7067 6.93915 18.1155 6.61859C17.5242 6.29803 16.8629 6.12848 16.1904 6.125H8.16665C7.08368 6.125 6.04507 6.55521 5.27929 7.32098C4.51352 8.08675 4.08331 9.12537 4.08331 10.2083V36.75C4.08331 38.9958 5.92081 40.8333 8.16665 40.8333Z" stroke="#C1A792" stroke-width="2" stroke-linecap="round" stroke-linejoin="round"/>
</svg>
