<svg width="71" height="74" viewBox="0 0 71 74" fill="none" xmlns="http://www.w3.org/2000/svg">
<path d="M36.4007 1C37.548 1 38.0397 1.44143 38.0397 1.44143V29.1043C38.0397 29.2514 37.3841 29.6928 36.4007 29.6928H36.2369C35.2535 29.6928 34.7618 29.2514 34.5979 29.2514V1.44143C34.7618 1.29429 35.4174 1 36.4007 1Z" fill="#00BD9E" stroke="#00BD9E" stroke-width="1.25" stroke-miterlimit="10"/>
<path d="M35.5813 73.2471C16.5698 73.2471 1 59.2685 1 42.2C1 29.9871 8.04737 19.3928 19.356 14.2428C19.5198 14.2428 19.6837 14.0957 19.8476 14.0957C20.0115 14.0957 20.0115 14.0957 20.1754 14.0957C20.5032 14.2428 20.6671 14.39 20.831 14.6843C20.9949 14.9786 20.9949 15.2728 20.831 15.42C20.6671 15.7143 20.5032 15.8614 20.1754 16.0086C9.6863 20.7171 3.1306 30.7228 3.1306 42.0528C3.1306 58.0914 17.5531 71.0399 35.4174 71.0399C53.2817 71.0399 67.7042 58.0914 67.7042 42.0528C67.7042 30.7228 61.1485 20.8643 50.8233 16.0086C50.3316 15.7143 50.0038 15.1257 50.3316 14.6843C50.6594 14.2428 51.315 13.9486 51.8067 14.2428C62.9513 19.3928 69.9987 29.9871 69.9987 42.0528C70.1626 59.4157 54.5928 73.2471 35.5813 73.2471Z" fill="#00BD9E" stroke="#00BD9E" stroke-width="1.25" stroke-miterlimit="10"/>
</svg>
