<svg width="70" height="42" viewBox="0 0 70 42" fill="none" xmlns="http://www.w3.org/2000/svg">
<path d="M2.86885 5.67537H67.1311C68.7148 5.67537 70 4.40409 70 2.83768C70 1.27128 68.7148 0 67.1311 0H2.86885C1.28525 0 0 1.27128 0 2.83768C0 4.40409 1.28525 5.67537 2.86885 5.67537ZM67.1311 18.1634H2.86885C1.28525 18.1634 0 19.4347 0 21.0011C0 22.5675 1.28525 23.8388 2.86885 23.8388H67.1311C68.7148 23.8388 70 22.5675 70 21.0011C70 19.4347 68.7148 18.1634 67.1311 18.1634ZM67.1311 36.3246H2.86885C1.28525 36.3246 0 37.5959 0 39.1623C0 40.7287 1.28525 42 2.86885 42H67.1311C68.7148 42 70 40.7287 70 39.1623C70 37.5959 68.7148 36.3246 67.1311 36.3246Z" fill="#004338"/>
</svg>
